<?xml version="1.0" standalone="no"?>
<!DOCTYPE svg PUBLIC "-//W3C//DTD SVG 20010904//EN"
 "http://www.w3.org/TR/2001/REC-SVG-20010904/DTD/svg10.dtd">
<svg version="1.0" xmlns="http://www.w3.org/2000/svg"
 width="423.000000pt" height="423.000000pt" viewBox="0 0 423.000000 423.000000"
 preserveAspectRatio="xMidYMid meet">
<metadata>
Created by potrace 1.11, written by Peter Selinger 2001-2013
</metadata>
<g transform="translate(0.000000,423.000000) scale(0.100000,-0.100000)"
fill="#000000" stroke="none">
<path d="M1028 2932 c-15 -9 -51 -32 -81 -51 -59 -37 -78 -64 -67 -96 8 -22
-5 -45 -26 -45 -8 0 -14 -4 -14 -10 0 -5 -8 -10 -17 -10 -14 0 -13 3 5 20 12
12 23 31 24 43 0 12 2 27 2 34 2 17 69 82 78 76 5 -2 8 3 8 11 0 24 -35 14
-78 -21 -65 -55 -102 -92 -102 -101 0 -5 -7 -15 -15 -22 -28 -23 2 40 35 73
34 35 40 60 11 49 -18 -7 -61 -54 -106 -117 -11 -16 -26 -34 -33 -42 -7 -7
-14 -22 -15 -33 -1 -11 -5 -16 -9 -12 -9 9 10 72 21 72 4 0 13 12 20 27 19 42
-3 50 -31 11 -36 -47 -98 -174 -98 -199 0 -12 -4 -17 -11 -14 -12 8 -3 60 16
90 17 26 6 58 -15 45 -8 -5 -12 -10 -7 -10 4 0 -2 -17 -13 -37 -11 -21 -20
-46 -20 -56 0 -10 -7 -40 -16 -68 -22 -66 -13 -112 28 -140 30 -21 31 -22 44
-4 7 10 11 21 9 26 -3 4 -2 10 3 13 9 5 7 47 -4 85 l-7 25 24 -22 c22 -21 24
-22 36 -6 7 10 13 14 13 10 0 -7 -41 -87 -50 -96 -6 -6 -12 -30 -13 -47 0 -7
-3 -13 -7 -13 -3 0 -6 -10 -7 -22 0 -13 -3 -36 -7 -53 -9 -41 -9 -122 0 -170
4 -22 8 -47 9 -55 1 -8 7 -27 14 -42 6 -16 16 -40 21 -54 31 -79 127 -191 210
-245 77 -50 59 -53 -32 -7 -80 40 -218 141 -218 159 0 5 -7 9 -15 9 -30 0 -13
-31 51 -95 77 -76 124 -110 211 -152 34 -17 60 -33 57 -36 -4 -3 -14 -2 -23 3
-9 4 -33 15 -53 24 -90 38 -117 52 -188 99 -132 87 -247 220 -310 362 -16 36
-27 65 -23 65 3 0 0 7 -7 15 -7 9 -10 18 -7 22 4 3 2 13 -3 22 -19 36 -27 155
-17 264 3 31 1 57 -4 57 -15 0 -40 -46 -33 -64 3 -9 1 -16 -5 -16 -8 0 -10
-39 -7 -127 4 -124 6 -141 19 -173 4 -8 8 -24 10 -35 5 -27 13 -48 48 -124 45
-96 103 -177 178 -245 19 -17 39 -36 45 -42 17 -16 134 -94 141 -94 4 0 19 -9
33 -19 15 -10 30 -19 35 -19 4 -1 32 -10 62 -21 30 -11 65 -22 77 -25 13 -2
42 -9 65 -14 23 -5 44 -7 48 -4 3 3 5 1 5 -5 0 -11 237 -15 255 -4 6 3 17 6
25 6 8 0 21 4 28 8 6 5 12 6 12 3 0 -2 15 0 33 5 17 6 41 12 52 14 69 15 253
110 345 178 86 63 170 151 160 168 -9 13 -31 -2 -85 -57 -32 -33 -165 -115
-212 -132 -44 -15 -42 -7 5 15 20 9 42 22 48 28 7 5 32 26 57 45 44 34 117
128 117 149 0 6 5 11 12 11 6 0 9 3 6 6 -4 3 0 21 8 40 8 20 10 34 4 34 -17 0
-25 -5 -23 -12 2 -5 -2 -8 -7 -8 -6 0 -10 -5 -10 -11 0 -25 -77 -118 -140
-170 -36 -29 -167 -91 -200 -94 -14 -1 -32 -5 -39 -9 -18 -12 -186 -9 -209 3
-11 6 -22 8 -25 5 -2 -3 -21 2 -41 10 -20 8 -36 13 -36 11 0 -7 -91 44 -130
73 -80 59 -170 180 -170 230 0 12 -5 22 -11 22 -5 0 -7 5 -3 11 4 7 -1 9 -12
7 -11 -2 -18 -10 -17 -18 12 -103 100 -243 202 -323 41 -33 126 -74 151 -74 3
0 15 -5 26 -11 12 -6 48 -14 80 -18 62 -6 98 -22 42 -18 -18 1 -33 3 -33 4 0
1 -21 3 -46 5 -26 2 -58 9 -70 16 -13 7 -25 12 -26 11 -4 -2 -34 8 -70 24 -18
8 -36 14 -39 14 -4 -1 -10 2 -13 7 -3 4 -25 20 -48 35 -53 35 -149 133 -165
170 -7 15 -16 28 -20 28 -5 0 -7 3 -6 8 0 4 -8 27 -20 52 -11 25 -22 56 -24
70 -2 14 -8 31 -12 39 -7 11 -4 11 13 -1 20 -14 26 -14 51 -1 36 17 68 61 76
101 3 17 21 46 40 66 19 20 31 36 26 36 -4 0 -1 4 6 9 11 7 11 9 -2 14 -9 4
-28 -9 -51 -34 -20 -23 -39 -39 -41 -36 -9 9 50 85 74 96 12 6 22 15 22 21 0
5 6 10 14 10 8 0 17 7 20 16 3 8 2 12 -4 9 -6 -3 -10 -1 -10 6 0 12 -3 10 -68
-39 -23 -17 -32 -19 -38 -10 -4 7 -4 10 0 6 5 -4 23 7 42 24 36 33 79 58 99
58 17 0 27 28 12 33 -7 2 -23 0 -36 -5 -13 -5 -26 -7 -28 -5 -2 3 11 10 29 17
18 6 42 16 53 20 11 5 32 11 46 14 15 3 26 12 26 22 0 11 -6 14 -21 10 -49
-14 -96 -18 -96 -9 0 5 10 9 23 8 12 -1 25 2 28 7 3 4 24 10 47 12 23 3 46 7
52 11 5 3 10 0 10 -7 0 -10 3 -9 10 2 12 20 -8 44 -25 30 -9 -7 -21 -7 -39 0
-14 5 -26 11 -26 12 0 2 36 3 81 3 58 0 84 4 92 14 9 12 9 13 0 7 -8 -4 -13
-2 -13 5 0 8 -4 8 -15 -1 -13 -11 -14 -10 -9 3 4 12 16 15 45 12 22 -2 45 -7
51 -11 7 -5 9 -2 6 7 -4 11 3 16 28 17 19 2 34 -1 34 -6 0 -11 38 -13 45 -1 4
5 2 9 -3 9 -6 0 -12 7 -15 14 -6 16 16 12 40 -7 18 -13 44 -1 37 17 -3 9 -9
15 -12 14 -18 -2 -32 3 -32 11 0 11 38 20 98 23 28 1 42 7 42 16 0 7 -4 10
-10 7 -5 -3 -10 -2 -10 2 0 5 -10 9 -23 9 -28 0 -87 23 -87 35 0 8 28 19 44
18 5 0 13 5 17 13 7 10 9 10 9 0 0 -7 5 -10 10 -7 6 3 10 13 10 22 0 15 -34
14 -115 -1 -11 -3 -27 -5 -37 -5 -9 -1 -24 -13 -35 -28 -16 -25 -43 -42 -43
-28 0 9 72 69 85 71 34 5 54 16 49 28 -6 16 -41 14 -74 -4 -14 -8 -31 -13 -39
-11 -25 5 -72 -22 -86 -49 -8 -15 -11 -30 -8 -34 4 -3 0 -6 -8 -7 -8 0 -23 -2
-34 -4 -17 -3 -15 0 8 21 15 13 25 24 21 24 -16 0 57 60 81 66 14 3 25 10 25
15 0 14 -48 11 -78 -4 -15 -8 -48 -24 -73 -36 -49 -24 -73 -57 -58 -83 6 -11
0 -17 -26 -26 -39 -11 -44 -7 -17 17 10 9 24 30 31 48 8 19 26 38 46 47 37 18
54 46 27 45 -9 0 -29 -8 -44 -17z m205 -159 c-6 -16 -19 -17 -28 -3 -4 6 -10
8 -15 5 -5 -3 -11 -2 -14 3 -2 4 10 8 29 8 22 0 31 -4 28 -13z m-100 -14 c4
-16 2 -17 -15 -8 -11 6 -27 8 -36 5 -15 -5 -15 -5 0 7 24 19 46 17 51 -4z
m-110 -29 c-3 -12 -13 -15 -41 -11 -24 3 -30 6 -17 9 11 2 24 7 28 11 14 14
34 8 30 -9z m-253 -49 c0 -6 -5 -11 -11 -11 -7 0 -20 -10 -30 -22 -23 -26 -24
-17 -4 22 9 17 13 30 10 30 -4 0 -3 5 0 10 7 11 35 -12 35 -29z m158 -24 c9
-3 -1 -5 -24 -6 -22 0 -45 -6 -51 -12 -8 -8 -13 -8 -17 0 -4 6 0 11 8 11 9 0
16 4 16 8 0 5 10 14 23 19 16 8 23 7 25 -3 2 -7 11 -15 20 -17z m-267 -36 c17
-16 18 -21 6 -32 -7 -8 -16 -22 -20 -31 -3 -10 -11 -18 -17 -18 -13 0 -13 17
1 25 6 4 8 22 6 41 -6 39 -3 41 24 15z m155 -26 c4 -8 11 -12 16 -9 6 4 9 1 6
-7 -3 -8 -15 -13 -26 -11 -12 2 -22 -2 -22 -7 0 -6 -5 -11 -11 -11 -16 0 -39
-26 -39 -44 0 -9 5 -16 11 -16 5 0 7 -5 4 -10 -4 -6 -10 -8 -15 -5 -4 3 -10 2
-12 -2 -2 -5 -16 -19 -32 -33 l-28 -25 22 45 c24 48 100 149 113 150 4 0 10
-7 13 -15z m-114 -219 c3 2 5 -3 5 -11 0 -8 -4 -12 -8 -9 -4 2 -21 -13 -38
-33 l-31 -38 14 47 c7 26 11 50 8 53 -4 3 5 2 20 -4 14 -5 28 -8 30 -5z m-19
-131 c20 5 19 4 -5 -17 -16 -13 -28 -31 -28 -41 0 -9 -5 -17 -11 -17 -5 0 -7
-6 -3 -12 4 -7 4 -10 -1 -6 -4 4 -8 29 -9 57 -1 44 1 48 17 39 10 -5 28 -6 40
-3z m812 -565 c-3 -5 -12 -10 -18 -10 -7 0 -6 4 3 10 19 12 23 12 15 0z m-51
-8 c3 -5 -1 -9 -9 -9 -8 0 -12 4 -9 9 3 4 7 8 9 8 2 0 6 -4 9 -8z m-104 -22
c0 -5 -8 -10 -17 -10 -15 0 -16 2 -3 10 19 12 20 12 20 0z m35 0 c-3 -5 -12
-10 -18 -10 -7 0 -6 4 3 10 19 12 23 12 15 0z m-81 -8 c3 -5 -1 -9 -9 -9 -8 0
-15 4 -15 9 0 4 4 8 9 8 6 0 12 -4 15 -8z"/>
<path d="M420 2557 c-15 -38 -20 -199 -9 -241 5 -16 14 -33 21 -38 7 -4 9 -8
3 -8 -16 0 -36 16 -39 31 -2 8 -7 27 -11 44 -5 16 -9 41 -11 55 -1 14 -2 28
-3 32 -1 4 -7 5 -14 2 -8 -3 -12 -17 -11 -37 5 -55 11 -101 17 -117 3 -8 8
-35 11 -59 3 -24 15 -58 26 -77 21 -32 35 -41 85 -50 54 -10 46 70 -14 133
-22 23 -30 46 -9 25 33 -33 75 8 57 56 -5 12 -6 22 -3 22 3 0 -5 18 -17 40
-13 22 -26 40 -30 40 -15 0 -26 58 -23 113 4 65 -9 82 -26 34z"/>
<path d="M3446 2499 c-16 -4 -33 -6 -37 -4 -4 3 -9 2 -11 -2 -1 -5 -25 -19
-51 -32 -107 -54 -179 -177 -178 -301 1 -75 4 -103 11 -110 3 -3 16 -27 29
-53 27 -53 110 -134 147 -143 13 -3 24 -9 24 -13 0 -4 6 -8 13 -9 6 -1 26 -4
42 -7 57 -12 150 -11 183 2 18 6 33 12 35 11 15 -7 132 61 149 86 14 20 8 34
-17 40 -17 4 -31 1 -40 -8 -66 -65 -201 -98 -300 -72 -77 21 -151 84 -182 156
-26 60 -36 137 -20 158 6 8 5 12 -2 12 -7 0 -9 5 -4 13 4 6 9 21 10 32 2 11 8
22 13 23 6 2 10 10 10 17 0 36 129 144 164 136 4 -1 13 2 20 7 21 17 149 6
201 -17 27 -12 52 -25 55 -30 3 -4 18 -15 34 -23 27 -14 30 -14 49 5 19 19 19
19 -5 42 -33 30 -121 75 -161 81 -59 10 -152 12 -181 3z"/>
<path d="M1052 2475 c-15 -9 -17 -29 -17 -143 0 -72 4 -132 8 -132 5 0 5 -5 2
-10 -4 -6 -7 -90 -7 -187 -1 -165 0 -177 18 -183 21 -7 271 -4 321 4 40 6 133
46 133 57 0 4 9 10 20 14 32 10 99 104 117 164 14 49 20 96 13 111 -1 3 -3 19
-5 35 -1 17 -3 30 -4 30 -2 0 -4 8 -6 18 -9 46 -111 166 -142 167 -7 0 -13 4
-13 9 0 11 -105 44 -155 48 -100 8 -268 7 -283 -2z m338 -68 c73 -29 90 -40
119 -72 17 -20 31 -32 31 -28 1 4 12 -16 26 -46 14 -29 23 -55 20 -58 -2 -2 0
-18 4 -34 6 -20 5 -29 -3 -29 -8 0 -7 -3 2 -9 9 -6 10 -11 2 -15 -6 -4 -9 -12
-5 -17 7 -12 -32 -94 -60 -127 -25 -29 -91 -69 -138 -83 -46 -15 -276 -18
-280 -5 -3 9 -2 525 1 534 3 8 258 -2 281 -11z"/>
<path d="M1890 2367 c-13 -10 -16 -47 -16 -237 0 -229 3 -248 38 -235 11 4 14
28 13 103 0 53 2 102 6 107 6 8 114 11 274 6 l30 -1 0 -107 c0 -95 2 -106 18
-109 10 -1 21 4 24 12 3 7 6 113 7 234 1 228 1 230 -40 230 -11 0 -14 -20 -13
-101 0 -55 -2 -103 -5 -106 -3 -3 -71 -7 -151 -7 -122 -1 -145 1 -146 14 -1 8
-2 54 -3 102 -1 92 -10 115 -36 95z"/>
<path d="M2533 2362 c-8 -5 -12 -77 -11 -240 l0 -232 24 0 c18 0 24 6 25 23 3
105 -1 339 -6 347 -3 6 1 7 9 4 9 -3 16 -10 16 -14 0 -5 6 -15 13 -22 20 -22
107 -138 107 -143 0 -10 44 -55 54 -55 6 0 31 29 56 65 25 36 48 65 53 65 4 0
7 5 7 12 0 6 7 18 15 27 8 9 25 29 38 44 l22 29 0 -164 c0 -97 -4 -166 -10
-170 -6 -5 -5 -8 3 -8 7 0 11 -4 8 -9 -11 -17 5 -39 25 -34 10 3 20 8 20 12 1
3 2 107 3 229 1 200 -1 225 -16 233 -12 6 -22 3 -37 -14 -24 -26 -151 -196
-151 -203 0 -2 -9 -13 -20 -24 -19 -19 -20 -19 -63 38 -24 31 -65 87 -91 125
-50 70 -74 91 -93 79z"/>
</g>
</svg>
